<svg id="cuidadores_x2" xmlns="http://www.w3.org/2000/svg" width="48" height="48" viewBox="0 0 48 48">
  <path id="Caminho_1108" data-name="Caminho 1108" d="M0,0H48V48H0Z" fill="none"/>
  <g id="Camada_2" data-name="Camada 2" transform="translate(4 6)">
    <g id="Camada_7" data-name="Camada 7">
      <path id="Caminho_1116" data-name="Caminho 1116" d="M20,0l-.3.28L0,18H4V36H36V18h4Zm8.72,18.8c0,3.3-2.96,6-7.46,10L20,30l-1.26-1.16c-4.5-4-7.46-6.74-7.46-10A4.76,4.76,0,0,1,16,14h0a5.28,5.28,0,0,1,4,1.82A5.28,5.28,0,0,1,24,14a4.76,4.76,0,0,1,4.8,4.7Z" fill="#fff"/>
    </g>
  </g>
</svg>
