<svg id="cuidadores_x1" xmlns="http://www.w3.org/2000/svg" width="24" height="24" viewBox="0 0 24 24">
  <path id="Caminho_1108" data-name="Caminho 1108" d="M0,0H24V24H0Z" fill="none"/>
  <g id="Camada_2" data-name="Camada 2" transform="translate(2 3)">
    <g id="Camada_7" data-name="Camada 7">
      <path id="Caminho_1116" data-name="Caminho 1116" d="M10,0,9.85.14,0,9H2v9H18V9h2Zm4.36,9.4c0,1.65-1.48,3-3.73,5L10,15l-.63-.58c-2.25-2-3.73-3.37-3.73-5A2.38,2.38,0,0,1,8,7H8a2.64,2.64,0,0,1,2,.91A2.64,2.64,0,0,1,12,7a2.38,2.38,0,0,1,2.4,2.35Z" fill="#fff"/>
    </g>
  </g>
</svg>
