<svg id="cuidadores_x3" xmlns="http://www.w3.org/2000/svg" width="72" height="72" viewBox="0 0 72 72">
  <path id="Caminho_1108" data-name="Caminho 1108" d="M0,0H72V72H0Z" fill="none"/>
  <g id="Camada_2" data-name="Camada 2" transform="translate(6 9)">
    <g id="Camada_7" data-name="Camada 7">
      <path id="Caminho_1116" data-name="Caminho 1116" d="M30,0l-.45.42L0,27H6V54H54V27h6ZM43.08,28.2c0,4.95-4.44,9-11.19,15L30,45l-1.89-1.74c-6.75-6-11.19-10.11-11.19-15A7.14,7.14,0,0,1,24,21h0a7.92,7.92,0,0,1,6,2.73A7.92,7.92,0,0,1,36,21a7.14,7.14,0,0,1,7.2,7.05Z" fill="#fff"/>
    </g>
  </g>
</svg>
